<?xml version="1.0" encoding="UTF-8"?>
<svg xmlns="http://www.w3.org/2000/svg" version="1.1" xmlns:xlink="http://www.w3.org/1999/xlink" viewBox="0 0 695.95 658.02">
  <defs>
    <style>
      .cls-1 {
        opacity: .2;
      }

      .cls-1, .cls-2, .cls-3, .cls-4 {
        fill: #fff;
      }

      .cls-5 {
        fill: #ffdbd0;
      }

      .cls-5, .cls-6, .cls-7, .cls-8, .cls-9, .cls-10, .cls-11, .cls-12, .cls-13, .cls-14, .cls-15, .cls-16 {
        stroke: #3d2a1e;
        stroke-linecap: round;
        stroke-linejoin: round;
        stroke-width: .75px;
      }

      .cls-17 {
        fill: #804a1d;
        font-family: LondrinaSolid-Regular, 'LondrinaSolid Regular';
        font-size: 39.72px;
      }

      .cls-18 {
        fill: #dd8e15;
        font-family: Gaegu-Regular, 'Gaegu Regular';
        font-size: 23.83px;
      }

      .cls-6 {
        fill: #e68e4c;
      }

      .cls-7 {
        fill: #e3542d;
      }

      .cls-19, .cls-11 {
        fill: none;
      }

      .cls-8 {
        fill: #8a4a1d;
      }

      .cls-9 {
        fill: #9fa976;
      }

      .cls-20 {
        clip-path: url(#clippath-1);
      }

      .cls-10 {
        fill: #3d2a1e;
      }

      .cls-21 {
        isolation: isolate;
      }

      .cls-22 {
        fill: #f9e4d0;
        mix-blend-mode: multiply;
        opacity: .75;
      }

      .cls-3 {
        opacity: .4;
      }

      .cls-23 {
        fill: #ffebd9;
      }

      .cls-12 {
        fill: #baa6a1;
      }

      .cls-13 {
        fill: #ba6f32;
      }

      .cls-4 {
        opacity: .15;
      }

      .cls-24 {
        display: none;
      }

      .cls-14 {
        fill: #f9d2ac;
      }

      .cls-15 {
        fill: #f7a815;
      }

      .cls-25 {
        clip-path: url(#clippath);
      }

      .cls-16 {
        fill: #798e57;
      }
    </style>
    <clipPath id="clippath">
      <rect class="cls-19" x="8.57" y="-29.36" width="687.38" height="687.38"/>
    </clipPath>
    <clipPath id="clippath-1">
      <rect class="cls-19" x="8.57" y="-29.36" width="687.38" height="687.38"/>
    </clipPath>
  </defs>
  <!-- Generator: Adobe Illustrator 28.7.1, SVG Export Plug-In . SVG Version: 1.2.0 Build 142)  -->
  <g class="cls-21">
    <g id="BACKGROUND" class="cls-24">
      <rect class="cls-23" x="195.95" y="158.02" width="500" height="500"/>
    </g>
    <g id="OBJECTS">
      <g class="cls-24">
        <g class="cls-25">
          <ellipse class="cls-14" cx="352.26" cy="592.25" rx="580.95" ry="195.49"/>
        </g>
      </g>
      <ellipse class="cls-22" cx="332.57" cy="553.41" rx="327.42" ry="93.4"/>
      <g>
        <path class="cls-2" d="M645.55,286.41c8.28-.67,15.9-2.73,22.31-5.82-6.42-3.09-14.04-5.16-22.31-5.82-.67-8.28-2.73-15.9-5.82-22.31-3.09,6.42-5.16,14.04-5.82,22.31-8.28.67-15.9,2.73-22.31,5.82,6.42,3.09,14.04,5.16,22.31,5.82.67,8.28,2.73,15.9,5.82,22.31,3.09-6.42,5.16-14.04,5.82-22.31Z"/>
        <path class="cls-2" d="M141.37,84.31c8.28-.67,15.9-2.73,22.31-5.82-6.42-3.09-14.04-5.16-22.31-5.82-.67-8.28-2.73-15.9-5.82-22.31-3.09,6.42-5.16,14.04-5.82,22.31-8.28.67-15.9,2.73-22.31,5.82,6.42,3.09,14.04,5.16,22.31,5.82.67,8.28,2.73,15.9,5.82,22.31,3.09-6.42,5.16-14.04,5.82-22.31Z"/>
        <path class="cls-23" d="M667.16,632.88c4.99-.4,9.59-1.65,13.47-3.51-3.87-1.87-8.47-3.11-13.47-3.51-.4-4.99-1.65-9.59-3.51-13.47-1.87,3.87-3.11,8.47-3.51,13.47-4.99.4-9.59,1.65-13.47,3.51,3.87,1.87,8.47,3.11,13.47,3.51.4,4.99,1.65,9.59,3.51,13.47,1.87-3.87,3.11-8.47,3.51-13.47Z"/>
        <path class="cls-2" d="M41.13,312.24c4.99-.4,9.59-1.65,13.47-3.51-3.87-1.87-8.47-3.11-13.47-3.51-.4-4.99-1.65-9.59-3.51-13.47-1.87,3.87-3.11,8.47-3.51,13.47-4.99.4-9.59,1.65-13.47,3.51,3.87,1.87,8.47,3.11,13.47,3.51.4,4.99,1.65,9.59,3.51,13.47,1.87-3.87,3.11-8.47,3.51-13.47Z"/>
      </g>
      <g>
        <g>
          <path class="cls-9" d="M206.04,420.61c-19.7-12.69-8.1-25.36-9.11-35.64-1.36-13.74-22.59-22.79-17.43-37.15.96-2.66,2.87-4.85,4.24-7.32,6.9-12.41-.92-27.83.58-41.95,1.91-17.93,19.96-37.6,37.75-46.57-6.1,21.54-6.91,33.42,9.38,50.54,20.94,22.01,4.77,25.93,5.03,45.15.19,13.85,18.2,32.11,3.48,64.55-10.7,23.57-15.44,20.29-33.91,8.39Z"/>
          <path class="cls-11" d="M206,283.01c-4.13,31.21,17.71,28.21,20.2,128.33.14,5.54.05,12.94-.75,18.42"/>
          <path class="cls-11" d="M195.15,290.44c-.05,15.02,2.48,24.28,21.57,41.08"/>
          <path class="cls-11" d="M226.34,304.13c5.16,17.95,2.54,19.82-6.15,42.43"/>
          <path class="cls-11" d="M193.67,335.1c-.18,27.7,25.53,28.54,30.85,44.07"/>
          <path class="cls-11" d="M236.11,367.21c5.13,13.21-5.76,26.41-10.13,37"/>
          <path class="cls-11" d="M204.9,394.29c3.25,13.24,11.34,17.69,21.33,24.15"/>
        </g>
        <g>
          <g>
            <path class="cls-16" d="M418.43,412.26c1.14-8.57-.74-19.62,5.92-26.35,5.35,17.74-1.93,40.28-7.73,57.22-2.24,6.54-13.72,20.84-9.35,27.33.85,1.27,40.94-35.64,44.82-40.36,32.29-39.33,38.35-59.82,49.54-72.56,7.62-8.68,6.06,5.69-17.84,40-13.03,18.7-25.59,31.43-17.19,27.15,52.83-26.92,56.06-27.52,60.69-24.8-41.67,25.48-41.29,12.4-96.18,59.59-19.08,16.48-30.13,20.86-27.06,23.98,18.47-1.83,56.52-7.76,66.5,1.09-11.36,12.24-23.68-16.56-149.73,30.21-5.55,2.06-12.29,4.23-16.91-.26-28.58-27.76,99.53,10.94,114.53-102.22Z"/>
            <g>
              <g>
                <path class="cls-9" d="M554.52,441.41c7.3,1.95,13.04,7.38,19.29,11.64,18.85,12.84,25.13.42,31.97-2.61,10.04-4.45,21.15,4.34,32.13,3.91,19.84-.77,15.55-17.68,53.57-12.32-4.32-16.3-38.38-26.54-45-33.2-8.94-8.98-9.46-29.96-43.29-24.82-10.82,1.64-21.63,5.08-32.48,3.63-9.7-1.3-18.96-6.48-28.7-5.49-11.84,1.21-35.48,20.96-36.46,25.91-1.08,5.4,8.39,13.66,11.66,17.81,16.02,20.29,23.07,11.72,37.32,15.54Z"/>
                <path class="cls-11" d="M667.99,431.91c-39.03-21.66-78.37,1.01-162.52-23.08"/>
                <path class="cls-11" d="M648.92,442.92c-35.02-2.4-38.59-17.46-48.78-21.71"/>
                <path class="cls-11" d="M629.2,402.38c-20.79-7.72-37.63,17.08-58.28,18.01"/>
                <path class="cls-11" d="M591.12,447.41c-6.19,4.92-38.12-25.16-44.69-29.63"/>
                <path class="cls-11" d="M572.59,396.86c-18.54-5.42-33.61,10.44-49.15,16.59"/>
              </g>
              <g>
                <path class="cls-9" d="M517.71,380.4c16.12-10.91,12.93-17.97,14.88-26.17,4.11-17.34,34.36-28.68,34.16-42.69-.09-6.03-8.61-9.62.25-22.12,8.53-12.03,12.37-12.18,8.11-35.34-1.44-7.84-2.31-16.61,2.22-23.18-29.27,6.63-33.27,31.91-41.13,42.49-11.67,15.71-35.51,20.53-43.43,38.42-6.6,14.93.68,33.72-7.4,47.91-4.72,8.29-17.17,24.27-5.34,32.8,9.93,7.16,29.62-6.65,37.69-12.12Z"/>
                <path class="cls-11" d="M562.68,249.8c-13.4,83.32-64.71,100.04-81.88,143.23"/>
                <path class="cls-11" d="M570.41,260.25c.52,7.79-14.18,25.61-19.36,31.38"/>
                <path class="cls-11" d="M545.66,273.58c-10.06,14.15-10.69,28.12-9.06,44.99"/>
                <path class="cls-11" d="M555.57,312.5c-8.02,17.7-25.47,23.55-40.04,32.8"/>
                <path class="cls-11" d="M517.95,300.29c-20.35,17.52-11.55,49.42-18.73,63.53"/>
                <path class="cls-11" d="M519.56,364.13c-7.97,12.21-23.41,16.6-33.38,17.86"/>
              </g>
              <g>
                <path class="cls-9" d="M448.02,503.22c15.15,19.64,27.47,6.26,38.41,6.41,14.61.2,26.07,21.78,40.75,15.04,2.72-1.25,4.86-3.46,7.34-5.13,12.47-8.4,29.44-1.53,44.2-4.38,18.74-3.62,37.87-24.43,45.73-44-22.17,8.37-34.63,10.29-54.15-5.35-25.1-20.11-27.78-2.7-48.07-1.24-14.62,1.05-35.5-16.32-68.39,2.13-23.9,13.4-20.01,18.1-5.81,36.52Z"/>
                <path class="cls-11" d="M593.17,490.91c-32.55,7.16-31.34-16.15-137.16-9.78-5.86.35-13.65,1.11-19.36,2.45"/>
                <path class="cls-11" d="M586.3,503.02c-15.83,1.4-25.83-.44-45.27-19.07"/>
                <path class="cls-11" d="M569.06,471.34c-19.4-3.83-21.13-.9-44.19,10.3"/>
                <path class="cls-11" d="M539.33,508.59c-29.2,2.68-32.4-24.37-49.26-28.58"/>
                <path class="cls-11" d="M501.65,466.71c-14.39-4.22-27.34,8.45-38.11,14"/>
                <path class="cls-11" d="M475.89,502.06c-14.26-2.23-19.68-10.38-27.39-20.33"/>
              </g>
              <g>
                <path class="cls-9" d="M395.02,397.19c2.69-7.26,10.93-12.12,11.48-19.84.4-5.67-3.57-10.61-5.4-15.99-7.84-23.12,17.2-26.15,22.34-38.61,5.77-13.98-12.82-31.92,39.98-55.92-3.74,5.83-7.64,12.58-5.86,19.28,1.78,6.72,18.1,24.14,10.06,39.93-3.24,6.37-9.92,10.43-13.2,16.78-4.88,9.43-1.03,20.75-.27,31.35,1.67,23.26-22.82,72.91-41.49,59.49-9.42-6.77-22.1-24.41-17.64-36.46Z"/>
                <path class="cls-11" d="M448.92,282.73c-21.62,28.74,12.77,79-32.55,152.75"/>
                <path class="cls-11" d="M453.91,298.52c-.49,12.58-3.71,25.91-12.56,34.85"/>
                <path class="cls-11" d="M427.41,328.69c-7.49,13.24,4.05,29.84,12.68,41.26"/>
                <path class="cls-11" d="M447.64,380.06c-1.21,12.68-8.34,20.2-17.72,28.8"/>
                <path class="cls-11" d="M420.67,361.89c-8.81,22.18-3.46,52.86,4.03,58.58"/>
              </g>
            </g>
          </g>
          <g>
            <path class="cls-7" d="M472.09,470.06c6.51-.24,12.39-6.85,13.2-12.54,1.15-8.05-7.11-17.46-15.05-19.76-9.22-2.67-20.12,5.02-18.76,15.17,1.05,7.89,12.81,17.42,20.6,17.13Z"/>
            <path class="cls-7" d="M429.43,403.85c-5.91-10.5,7.24-23.01,20.52-12.43,18.49,14.72-13.78,24.38-20.52,12.43Z"/>
            <path class="cls-15" d="M430.94,415.8c2.1-17.23,36.31-13.26,26.2,3.36-5.68,9.35-28.06,11.92-26.2-3.36Z"/>
            <path class="cls-15" d="M471.9,420.92c10.51-9.31,3.94-26.89-10.11-27.02-24.97-.22-10.97,45.69,10.11,27.02Z"/>
            <path class="cls-7" d="M433.38,436.15c-4.66,14.93,16.96,33,28.78,13.69,3.17-5.18,4.36-11.69,2.55-17.48-5.73-18.44-26.69-11.08-31.33,3.79Z"/>
            <path class="cls-7" d="M453.39,435.84c8.41,14.81,26.88,11.03,30.2-1.99,6.61-25.88-45.07-24.19-30.2,1.99Z"/>
            <path class="cls-8" d="M474.24,431.18c.14,4.65-5.79,5.72-7.55,1.53-2.38-5.66,7.35-8.29,7.55-1.53Z"/>
            <path class="cls-8" d="M467.03,391.38c-4.02-3.24-10.41.62-7.23,5.55,3.86,5.99,13.19-.75,7.23-5.55Z"/>
            <path class="cls-8" d="M443.91,449.24c-5.07-7.88-14.1,2.6-6.73,6.99,5.16,3.07,9.86-2.11,6.73-6.99Z"/>
            <path class="cls-8" d="M484.61,466.05c-1.09,5.76-9.51,4.9-9.18-1,.36-6.52,10.43-5.59,9.18,1Z"/>
          </g>
          <g>
            <path class="cls-7" d="M465.72,479.85c-3.7,5.36-12.44,6.76-17.67,4.39-7.41-3.36-10.9-15.39-8.57-23.31,2.71-9.21,15.05-14.26,22.88-7.66,6.08,5.13,7.79,20.17,3.36,26.58Z"/>
            <path class="cls-15" d="M432.83,408.27c-5.67-10.63-23.29-6.27-21.51,10.61,2.47,23.51,27.97,1.49,21.51-10.61Z"/>
            <path class="cls-7" d="M442.09,415.97c-15.66-7.49-30.7,23.48-11.25,23.9,10.94.23,25.14-17.25,11.25-23.9Z"/>
            <path class="cls-7" d="M424.39,453.26c-13.51,3.86-24.79-11.14-17.34-23.05,13.25-21.17,44.42,15.32,17.34,23.05Z"/>
            <path class="cls-15" d="M457.95,428.98c15.09,4.1,18.7,32.04-3.93,31.63-6.07-.11-12.2-2.61-16.11-7.25-12.46-14.75,5.01-28.46,20.05-24.38Z"/>
            <path class="cls-15" d="M446.92,445.68c7.96,15.05-5.16,28.59-17.92,24.39-25.37-8.35,3.84-51,17.92-24.39Z"/>
            <path class="cls-8" d="M431.78,460.75c3.84,2.62,7.94-1.8,5.35-5.55-3.49-5.05-10.95,1.74-5.35,5.55Z"/>
            <path class="cls-8" d="M402.1,433.26c-.57-5.13,6.12-8.44,8.57-3.11,2.98,6.48-7.72,10.72-8.57,3.11Z"/>
            <path class="cls-8" d="M463.31,444.89c-3.92-8.51,9.77-10.49,9.51-1.91-.19,6-7.08,7.17-9.51,1.91Z"/>
            <path class="cls-8" d="M455.6,488.24c5.44,2.18,9.24-5.39,4.1-8.28-5.69-3.2-10.33,5.79-4.1,8.28Z"/>
          </g>
          <g>
            <path class="cls-5" d="M535.1,393.2c1.58.67,7.8,11.41,18.44,7.37,3.33-1.27,5.4-3.82,11.24-4.65,1.68-.24,1.66-1.17.85-1.83-1.65-1.34-4.06-.85-6.17-1.17-5.94-.89-10.69-9.29-23.19-5.96,12.52-6.48,6.29-19.77,6.58-23.94.08-1.17.28-2.58-.65-3.31-3.12-2.45-4.18,4.66-4.26,4.89-1.23,3.61-8.98,8.57-6.59,19.73-10.54-15.26-15.97-5.7-23.63-8.98-2.93-1.26-4.1.48-.78,2.58,3.99,2.52,4.55,14.73,17.75,14.65-4.22.75-11.9,5.17-12.63,10.87-.31,2.38.38,5.02-.91,7.04-6.66,10.34,11.04-1.73,12.23-3.62,1.15-1.82,2.04-6.85,4.57-6.6,3.45.34-2,10.41.19,14.66,1.66,3.22,5.99,3.94,8.54,6.53,5.43,5.5,2.06-3.43,2.54-10.12.75-10.6-9.64-20.47-4.11-18.14Z"/>
            <path class="cls-5" d="M466.77,356.61c-1.12-1.29-2-13.67-13.34-14.71-3.55-.33-6.53,1.06-12.13-.76-1.61-.52-2.01.32-1.57,1.27.9,1.93,3.28,2.55,5.03,3.76,4.94,3.4,5.52,13.04,18.22,15.54-14.1.32-14.33,15-16.42,18.62-.59,1.02-1.38,2.2-.87,3.26,1.73,3.57,5.8-2.36,5.97-2.52,2.7-2.71,11.83-3.75,14.59-14.84,2.77,18.34,11.85,12.13,17.28,18.44,2.08,2.42,3.89,1.37,1.84-1.97-2.47-4.01,2.38-15.23-9.52-20.96,4.12,1.18,12.96.57,16.12-4.22,1.32-2,1.86-4.68,3.91-5.92,10.52-6.37-10.67-3.29-12.57-2.12-1.83,1.14-4.84,5.26-7.01,3.92-2.95-1.82,6.37-8.47,6.26-13.26-.08-3.62-3.65-6.17-4.8-9.61-2.46-7.32-3.36,2.18-6.73,7.98-5.33,9.19-.32,22.62-4.27,18.1Z"/>
            <path class="cls-5" d="M502.02,459.43c-.62,1.6-11.16,8.15-6.79,18.66,1.37,3.29,3.99,5.28,4.99,11.09.29,1.67,1.22,1.63,1.86.79,1.29-1.69.73-4.09.98-6.2.7-5.96,8.96-10.97,5.24-23.36,6.86,12.32,19.95,5.68,24.13,5.84,1.17.05,2.59.2,3.29-.75,2.35-3.2-4.79-4.03-5.02-4.1-3.65-1.12-8.84-8.71-19.93-5.98,14.93-11.01,5.2-16.14,8.25-23.89,1.17-2.97-.6-4.09-2.6-.7-2.4,4.06-14.58,5-14.1,18.19-.88-4.19-5.54-11.73-11.25-12.29-2.39-.23-5.01.54-7.06-.7-10.54-6.34,2.07,10.98,3.99,12.11,1.86,1.09,6.91,1.83,6.74,4.37-.23,3.46-10.46-1.68-14.65.65-3.17,1.76-3.76,6.11-6.26,8.73-5.33,5.59,3.49,1.96,10.2,2.23,10.61.42,20.16-10.27,18-4.67Z"/>
          </g>
        </g>
        <g>
          <g>
            <path class="cls-16" d="M221.15,455.55c7.12-1.85-30.44-66.67-35.56-74.32-1.81-2.71-3.16-3.58-7.68-2-6.74,2.36-8,6.07-2.54,10.65,25.84,21.71,35.88,68.26,45.78,65.68Z"/>
            <g>
              <path class="cls-9" d="M195.31,360.79c-3.9-18.32-11.35-18.03-17.96-22.73-13.98-9.94-13.15-41.01-25.72-45.89-5.41-2.1-11.7,4.2-19.64-8.22-7.65-11.96-6.39-15.43-28.58-20.01-7.52-1.55-15.65-3.94-19.87-10.36-4.67,28.5,16.42,41.2,23.02,52.04,9.79,16.08,5.47,39.09,18.56,52.62,10.93,11.29,30.32,11.59,40.05,23.92,5.68,7.21,15.43,24.09,27.32,16.62,9.97-6.27,4.78-28.82,2.82-37.99Z"/>
              <path class="cls-11" d="M95.1,273.47c69.46,42.07,65.81,93.87,98.12,124.8"/>
              <path class="cls-11" d="M107.21,270.36c7.14,2.35,17.71,21.9,20.99,28.61"/>
              <path class="cls-11" d="M110.15,297.24c8.98,14.09,21.21,19.7,36.85,24.34"/>
              <path class="cls-11" d="M148.45,302.48c12.89,13.55,11.79,31.22,14.77,47.57"/>
              <path class="cls-11" d="M123.95,331.61c8.27,24.48,39.9,28.16,49.89,39.67"/>
              <path class="cls-11" d="M181.47,353.26c8,11.52,6.34,26.88,3.86,36.23"/>
            </g>
            <g>
              <path class="cls-9" d="M183.79,412.4c-14.48,18.98-26.4,6.17-36.92,6.37-14.06.27-24.97,21.09-39.13,14.69-2.62-1.19-4.69-3.3-7.09-4.9-12.04-8.01-28.34-1.32-42.55-3.98-18.05-3.39-36.56-23.31-44.23-42.1,21.38,7.94,33.38,9.72,52.08-5.43,24.04-19.48,26.71-2.74,46.25-1.45,14.07.93,34.08-15.88,65.82,1.7,23.06,12.77,19.35,17.32,5.78,35.11Z"/>
              <path class="cls-11" d="M44.07,401.31c31.35,6.72,30.08-15.7,131.93-10.12,5.64.31,13.14.99,18.65,2.26"/>
              <path class="cls-11" d="M50.74,412.93c15.24,1.27,24.86-.56,43.46-18.58"/>
              <path class="cls-11" d="M67.16,382.36c18.65-3.79,20.33-.98,42.58,9.68"/>
              <path class="cls-11" d="M95.97,418.05c28.11,2.43,31.05-23.62,47.25-27.76"/>
              <path class="cls-11" d="M132,377.55c13.83-4.14,26.35,7.99,36.75,13.28"/>
              <path class="cls-11" d="M156.97,411.43c13.71-2.22,18.89-10.09,26.25-19.7"/>
            </g>
          </g>
          <g>
            <path class="cls-5" d="M125.32,371.75c-.19-1.47,5.15-10.79-2.5-16.99-2.39-1.94-5.21-2.38-8.35-6.39-.91-1.15-1.6-.73-1.74.16-.28,1.82,1.13,3.41,1.8,5.12,1.91,4.83-2.31,12.03,5.61,19.94-10.28-6.56-17.52,3.88-20.77,5.47-.91.45-2.05.91-2.2,1.92-.48,3.4,5.3,1.1,5.51,1.06,3.24-.65,10.31,3,17.63-3.63-6.84,14.51,2.67,14.42,3.54,21.57.33,2.74,2.14,2.86,2.27-.53.16-4.08,9.05-9.8,3.26-19.64,2.4,2.83,9.04,6.65,13.61,4.73,1.91-.8,3.59-2.47,5.66-2.37,10.63.49-6.08-7.51-8.01-7.58-1.86-.07-6.01,1.45-6.92-.56-1.24-2.73,8.65-3.02,10.89-6.51,1.69-2.64.35-6.19,1.18-9.22,1.76-6.45-3.46-.06-8.68,2.5-8.25,4.04-11.13,16.1-11.78,10.95Z"/>
            <path class="cls-5" d="M199.27,364.59c1.23-.83,11.95-.26,14.05-9.88.66-3.01-.22-5.72,1.94-10.34.62-1.33-.06-1.76-.92-1.48-1.75.57-2.54,2.54-3.76,3.92-3.45,3.88-11.78,3.35-15.27,13.98,1.22-12.13-11.35-13.89-14.24-16.08-.81-.61-1.74-1.42-2.7-1.1-3.25,1.11,1.4,5.23,1.53,5.39,2.04,2.6,1.96,10.55,11.18,14.1-16.04.43-11.67,8.88-17.67,12.87-2.3,1.53-1.59,3.2,1.5,1.79,3.71-1.7,12.82,3.67,19-5.94-1.45,3.41-1.87,11.06,1.91,14.28,1.58,1.34,3.82,2.09,4.67,3.99,4.35,9.71,3.96-8.81,3.15-10.57-.78-1.69-4-4.71-2.62-6.43,1.88-2.34,6.59,6.37,10.72,6.79,3.12.32,5.69-2.48,8.76-3.1,6.55-1.33-1.51-3.12-6.14-6.62-7.32-5.55-19.38-2.68-15.08-5.59Z"/>
          </g>
          <g>
            <path class="cls-7" d="M154.32,395.86c-1.98-5.94,2-13.48,6.85-16.13,6.87-3.75,18.14.53,22.88,6.9,5.51,7.41,2.25,19.82-7.35,22.02-7.46,1.71-20.01-5.68-22.38-12.8Z"/>
            <path class="cls-7" d="M227.11,412.5c10.54-4.83,7.37-22.01-8.95-21.28-22.72,1.02-3.05,26.78,8.95,21.28Z"/>
            <path class="cls-15" d="M211.54,417.65c14.82-7.7-.28-37.19-11.86-22.48-6.51,8.27-1.29,29.31,11.86,22.48Z"/>
            <path class="cls-7" d="M198.67,379.47c4.85-12.61,22.91-12.61,27.76.01,8.61,22.43-37.49,25.28-27.76-.01Z"/>
            <path class="cls-7" d="M197.92,419.32c-11.89,9.23-35.46-4.17-22.04-21.33,3.6-4.6,9.07-7.86,14.9-8.19,18.55-1.04,18.98,20.32,7.14,29.52Z"/>
            <path class="cls-15" d="M191.46,401.18c-16.18-2.59-18.99-20.51-8.38-27.89,21.1-14.67,36.99,32.47,8.38,27.89Z"/>
            <path class="cls-8" d="M188.64,380.82c-4.24,1.44-3.21,7.15,1.17,7.32,5.9.24,5-9.42-1.17-7.32Z"/>
            <path class="cls-8" d="M226.95,373.91c4.28,2.53,2.94,9.59-2.57,8.39-6.7-1.46-3.77-12.14,2.57-8.39Z"/>
            <path class="cls-8" d="M182.58,414.24c8.81,1.91,2.41,13.59-4.03,8.42-4.5-3.61-1.42-9.6,4.03-8.42Z"/>
            <path class="cls-8" d="M153.72,383.22c-4.82,2.92-1.21,10.22,3.99,7.94,5.76-2.52,1.53-11.29-3.99-7.94Z"/>
          </g>
        </g>
      </g>
      <g>
        <path class="cls-8" d="M509.9,193.17c6.18,2.98,8.51,10.97,7.25,17.72-2.72,14.59-19.33,26.54-32.63,71.21-7.45,25.03-14.87,20.95-22.91,23.57-5.64,1.83-8.49,6.5-1.99,12.72,2.79,2.67,17.04,16.23,20.89,16.13,14.62-.4,80.8-109.96,81.36-133.8.63-26.61-35.76-58.06-59.45-63.87-14.2-3.49-23.63-1.69-92.37,4.62-3.82.35-5.26,1.49-4.86,6.3,6.18,72.85,3.49,77.75,11.2,83.79,9.26,7.26,23.98-4.79,32.12-9.26,40.91-22.51,49.76-34.71,61.37-29.11Z"/>
        <path class="cls-12" d="M464.29,173.61c10.4-1.26,15.73-3.87,17.45-15.43,1.35-9.07-1.07-22.49-4.82-25.58-5.04-4.17-60.24.64-66.67,1.3-10.59,1.08-12.07,4.62-12.62,10.43-4.57,48.77,1.61,37.2,66.65,29.29Z"/>
        <path class="cls-6" d="M469.02,151.7c6.61,5.81.43,16.08-7.45,15.52-17.07-1.22-3.52-25.16,7.45-15.52Z"/>
        <path class="cls-11" d="M495.61,310.34c10.83-15.48,21.89-34.08,33.15-49.25"/>
        <path class="cls-11" d="M533.76,252.01c4.79-6.05,9.85-16.46,13.24-23.39"/>
        <path class="cls-11" d="M466.9,202.27c10.41-10.51,29.84-25.46,45.29-21.49"/>
        <path class="cls-11" d="M523,186.45c4.04,3.53,5.43,9.77,3.27,14.69"/>
        <path class="cls-12" d="M419.24,374.33c18.99,160.09,18.55,151.05,17.23,154.89-2.88,8.4-38.54,20.51-47.4,22.14-13.37,2.46-18.42,1.69-110.27-1.5-27.26-.94-82.45,4.36-87.27-42.21-2.52-24.35,14.55-115.57,19.48-139.34,3.38-16.27,6.33-23.78,28.28-34.14,18.38-8.68,38.57,2.2,58.26,2.08,32.35-.2,114.29-24.27,121.69,38.08Z"/>
        <path class="cls-11" d="M215.71,352.99c1.43,8.19,1.17,18.24,1,26.61,21.45-11.13,46.72-10.48,67.77,1.74,3.65,2.12,4.58,2.25,8.48.51,21.38-9.52,57.91-15.22,76.13.33,14.09-12.2,31.53-18.79,48.62-16.09"/>
        <path class="cls-11" d="M216.71,379.6c-5.44,57.83-12.5,101.11-15.46,151.94"/>
        <path class="cls-11" d="M288.84,383.05c-3.42,54.66-7.49,112.13-10.91,166.79"/>
        <path class="cls-11" d="M369.09,382.18c4.83,56.33,7.45,113.93,7.02,170.57"/>
        <path class="cls-7" d="M384.56,316.06c4.92,7.16,3.52,20.08-3.58,31.41-12.87,20.51-82.94,14.08-102.29,10.68-17.58-3.09-30.59-11.05-30.78-37.01-.07-9.54,2.58-11.97,8.72-11.26,98.21,11.29,118.26-7.85,127.92,6.19Z"/>
        <path class="cls-12" d="M410.7,280.78c3.37,62.6-7.16,57.56-43.93,58.28-169.83,3.37-148.84.65-151.05-63.39,108.95,17.2,140.21-7.12,194.99,5.1Z"/>
        <path class="cls-7" d="M434.06,125.81c-1.74,39.66-3.29,43.05-14.21,140.43-.77,6.88-5.12,12.93-11.5,15.63-15.6,6.59-132.73,27.48-193.25-2-23.17-11.29-4.37-62.46-17.22-151.86,79.29,9.31,157.07-12.97,236.17-2.19Z"/>
        <path class="cls-11" d="M259.81,130.75c1.9,54.92,5.28,108.44,10.32,163.16"/>
        <path class="cls-11" d="M372.42,126.5c-4.34,55.04-8.68,110.08-13.02,165.13"/>
        <path class="cls-12" d="M141.15,154.55c5.1-23.69,33.36-27.73,52.59-29.66,28.31-2.83,27.61-3.03,28.65-2.25,1.68,1.28,1.59-2.68-10.69,81.67-2.2,15.09,1.31,39.07-25.82,3.76-10.53-13.7-13.39-55.69-44.72-53.52Z"/>
        <path class="cls-11" d="M141.15,154.55c3.16-8.4,34.52-19.54,56.63-22.96"/>
        <path class="cls-12" d="M376.25,141.39c13.11-.03,26.67-.2,39.3-4.34,46.97-15.42-2.62-31.05-50.69-46.21-19.8-6.25-41-9.77-62.19-7.23-33.79,4.05-72.65,20.63-101.5,37.59-9.62,5.65-4.08,12.55,2.52,14.91,20.39,7.31,25.4,5.58,172.57,5.28Z"/>
        <path class="cls-11" d="M283.99,132.19c7.75-13.24,14.48-27.08,20.11-41.35"/>
        <path class="cls-11" d="M331.97,90.16c9.53,12.62,18.4,25.74,26.55,39.28"/>
        <path class="cls-7" d="M349.79,47.82c-2.87,13.58-4.86,42.04-17.59,47.94-7.57,3.51-26.76,3.8-32.59-3.13-6.19-7.37-.88-7.21-10.58-40.38-1.04-3.54-4.72-13.87-4.06-16.9.72-3.35,5.76-7.98,15.28-8.63,57.61-3.9,54.21-.89,49.55,21.1Z"/>
        <path class="cls-6" d="M352.78,33.71c-2.26,13.82-68.22,16.57-68.19.23.03-15.18,71.21-18.7,68.19-.23Z"/>
        <path class="cls-11" d="M320.27,92.79c13.57,3.41,17.65-9.16,20.65-22.84"/>
        <path class="cls-11" d="M342.38,63.54c1.02-3.36,1.75-13.75,2.64-16.91"/>
        <path class="cls-11" d="M378.27,280.9c39.73-2.13,33.02-16.73,36.96-33.46"/>
        <path class="cls-11" d="M416.36,236.5c.77-6.51,2.13-15.85,2.9-22.37"/>
        <path class="cls-11" d="M404.02,295.21c-1.78,27.14-5.04,35.56-18.57,35.56"/>
        <path class="cls-11" d="M362.21,330.77c4.74.24,11.95.03,16.06.03"/>
        <path class="cls-11" d="M401.32,521.63c5.57-13.99,11.68-27.65,18.3-40.93"/>
        <path class="cls-11" d="M413.75,519.92c2.55-7.06,5.45-13.92,8.68-20.54"/>
        <path class="cls-11" d="M421.75,522.61c.96-2.68,1.93-5.36,2.89-8.03"/>
        <path class="cls-11" d="M337.03,529.8c6.38-10.21,12.16-20.98,17.28-32.22"/>
        <path class="cls-11" d="M351.37,530.57c2.87-6.27,5.74-12.53,8.62-18.8"/>
        <path class="cls-11" d="M360.97,535.17c1.43-2.99,2.87-5.97,4.3-8.96"/>
        <path class="cls-11" d="M248.56,523.48c5.58-10.09,11.16-20.18,16.74-30.28"/>
        <path class="cls-11" d="M259.56,528.06c2.86-4.79,5.72-9.59,8.58-14.38"/>
        <path class="cls-11" d="M268.15,533.32c.97-2.08,1.93-4.17,2.9-6.25"/>
        <path class="cls-11" d="M319.06,271.5c7.11-8.56,14.22-17.13,21.33-25.69"/>
        <path class="cls-11" d="M331.92,274.26c4.75-4.45,9.12-9.3,13.04-14.49"/>
        <path class="cls-11" d="M238.54,264.15c3.81-7.03,7.63-14.06,11.44-21.09"/>
        <path class="cls-11" d="M249.3,270.61c2.66-4.59,5.32-9.17,7.98-13.76"/>
        <path class="cls-11" d="M192.76,193.08c3.55-10.36,7.68-20.51,12.36-30.41"/>
        <path class="cls-11" d="M200.11,196.74c1.87-5.82,3.74-11.63,5.6-17.45"/>
        <g>
          <path class="cls-4" d="M321.54,55.96c-3.62-1.13-21.27-2.53-22.42-2.33-2.76.48.07,5.17,9.97,7.62,11.12,2.75,17.17-3.81,12.45-5.29Z"/>
          <path class="cls-4" d="M303.75,68.81c-3.22-4.62-2.21,12.79.23,17.9,1.04,2.18,3.99.86,4.16-1.13.3-3.48-2.15-13.56-4.39-16.77Z"/>
          <path class="cls-4" d="M325.66,68.73c-2.54-1.7-4.99,0-4.28,2.12.71,6.39,9.06,1.08,4.28-2.12Z"/>
          <path class="cls-4" d="M320.66,80.3c-.78-1.68-1.29.18-1.07.88.3.93,1.52.1,1.07-.88Z"/>
          <path class="cls-4" d="M251.81,168.84c-.23-2.18-2.11-3.23-4.1-2.35-8.64,3.79-12.29,17.74-15.48,25.94-11.22,28.82-7.16,38.46-4.53,33.66,5.26-9.59,8.46-20.14,12.91-30.13,3.5-7.85,12.14-18.26,11.2-27.12Z"/>
          <path class="cls-4" d="M247.57,208.33c-2.33,2.73-6.89,13.62-7.25,21.4-.4,8.56,11.54-11.03,11.81-19.51.07-2.21-3.04-3.66-4.56-1.89Z"/>
          <path class="cls-4" d="M351.28,161.14c-13.92-1.7-19.26.07-54.92-.16-28.33-.19-8.68,8.23,17.82,9.62,40.51,2.14,44.06-8.61,37.11-9.46Z"/>
          <path class="cls-4" d="M299.93,189.28c-12.21,9.76-26.11,44.29-22.96,60.28,1.54,7.81,10.73-23.07,13.81-29.69,4.35-9.36,10.94-17.8,14.62-27.41,1.3-3.4-3.23-4.97-5.46-3.18Z"/>
          <path class="cls-4" d="M316.64,215.73c-9.67,9.2-23.09,35.22-21,47.95,1.19,7.27,24.4-41.95,25.64-45.25,1.03-2.73-2.77-4.48-4.64-2.7Z"/>
          <path class="cls-4" d="M410.31,151.31c-7.38,2.05-31.12,9.62-23.28,12.17,9.44,3.06,19.51.24,26.63-6.41,2.54-2.38-.1-6.66-3.35-5.76Z"/>
          <path class="cls-4" d="M246.03,150.31c-6.78-3.95-17.38.35-13.59,2.63,8.03,4.84,18.2.06,13.59-2.63Z"/>
          <path class="cls-4" d="M393.69,189.81c-13.79,13.23-23.57,48.92-18.5,44.6,5.85-4.98,8.64-13.54,12.2-20.2,3.8-7.11,8.6-13.93,10.95-21.7.82-2.72-2.7-4.57-4.64-2.7Z"/>
          <path class="cls-4" d="M384.52,257.68c-.71,2.59,3.37,4.52,4.5,1.9,3.43-8.03,8.12-15.63,11.26-23.74,1.94-5.01-8.55-4.46-15.76,21.84Z"/>
          <path class="cls-4" d="M527.34,159.43c-19.22-15.18-33.27-14.4-29.15-10.59,7.21,6.66,15.6,11.92,22.7,18.75,6.72,6.47,11.92,15.34,20.05,20.06,6.51,3.79,9.68-9.84-13.6-28.22Z"/>
          <path class="cls-4" d="M532.98,221.98c-18.35,14.55-24.52,38.09-42.24,68.39-40.23,68.79,36.41-32.63,48-65.04,1.29-3.6-3.36-5.25-5.75-3.35Z"/>
          <path class="cls-4" d="M328.88,346.1c-10.08.73-19.68,3.79-29.92,2.35-2.31-.33-3.33,2.82-.99,3.58,29.12,9.53,38.57-6.48,30.91-5.93Z"/>
        </g>
        <g>
          <path class="cls-1" d="M332.79,30.13c-17.46-12.21-42.18,3.69-37.83,4.82,5.29,1.37,11.24.21,16.72.43,6.46.25,12.88,2.01,19.32,1.37,3.55-.35,4.78-4.53,1.79-6.62Z"/>
          <path class="cls-1" d="M277.84,96.67c-27.2,1.68-75.3,30.77-62.42,29.65,10.76-.93,21.83-7.16,31.88-10.93,10.61-3.98,22.36-7.05,32.14-12.82,2.59-1.53,1.63-6.11-1.6-5.91Z"/>
          <path class="cls-1" d="M275.29,126.35c-.52,1.49,1.52,2.51,2.56,1.49,2.29-2.27,4.1-4.8,5.97-7.43,11.21-15.71-.91-15.99-8.53,5.94Z"/>
          <path class="cls-1" d="M297.09,131.03c.02,2.5,3.17,3.12,4.48,1.21,3.18-4.62,10.4-18.09,10.53-24.04.19-8.63-15.19,1.92-15.01,22.83Z"/>
          <path class="cls-1" d="M363.08,103.83c-10.63-9.65-16.72-10.09-16.39-7.66.68,4.97,6.72,10.01,9.64,13.91,3.31,4.42,6.37,11.26,11.42,13.78,5.57,2.78,12.17-4.73-4.67-20.02Z"/>
          <path class="cls-1" d="M191.5,140.52c-6.86-2.06-24.22,0-30.93,8.17-3.57,4.34,10.38,1.5,15.6-.64,4.89-2,10.22-1.09,15.33-2.48,2.54-.69,2.45-4.32,0-5.06Z"/>
          <path class="cls-1" d="M176.1,166.42c-.54,1.88,1.96,2.72,3,1.26,2.87-4.04,6.86-8.39,8.14-13.28,1.02-3.89-6.44-4.44-11.14,12.02Z"/>
          <path class="cls-1" d="M183.98,172.07c-1.35,4.57.97,6.35,3.76,2.29,3.56-5.18,4.58-6.49,4.61-8.27.04-3.32-5.38-4.15-8.36,5.98Z"/>
          <path class="cls-1" d="M471.83,138.41c-15.62-6.07-38.63,3.21-30.44,5.38,19.19,5.08,39.99-1.67,30.44-5.38Z"/>
          <path class="cls-1" d="M462.84,155.96c-1.71-.69-3.9,3.48-1.05,3.66,1.28.1,2.62-3.03,1.05-3.66Z"/>
          <path class="cls-1" d="M335.02,321.19c-34.99-16.03-97.76,10.59-103.12-20.97-.27-1.59-2.59-1.09-2.68.36-1.15,18.53,18.15,27.19,33.65,28.71,10.53,1.03,56.96,4.45,71.27-1.31,2.6-1.04,4.12-5.31.89-6.79Z"/>
          <path class="cls-1" d="M378.81,301.76c-3.1-2.84-6.95,1.73-4.23,4.23,3.11,2.85,6.95-1.74,4.23-4.23Z"/>
          <path class="cls-1" d="M368.9,314.12c-5.01-2.28-4.57,5.39-.53,3.55,2.25-1.03,1.53-3.09.53-3.55Z"/>
          <path class="cls-1" d="M392.06,313.56c-2.74-6.49-10.58,5.91-3.45,3.76,2.52.87,4.29-1.76,3.45-3.76Z"/>
          <path class="cls-1" d="M261.45,365.76c-14.1-14.45-43.04-.29-32.79.92,30.15,3.56,24.07,4.33,30.59,4.4,2.73.03,4.07-3.41,2.2-5.32Z"/>
          <path class="cls-1" d="M300.5,368.08c-6.47-.08-11.55,4.07-8.95,4.85,3.15.95,7.03.04,9.86-1.49,1.61-.87.83-3.34-.91-3.36Z"/>
          <path class="cls-1" d="M389.4,357.88c-5.22-1.54-17.37,4.48-19.46,10.75-1.29,3.86,7.37-.43,10.61-1.78,3.29-1.38,7.38-1.87,10.11-4.21,1.68-1.44.67-4.18-1.25-4.75Z"/>
          <path class="cls-1" d="M203.45,463.53c-.11-2.34-3.19-2.66-3.97-.54-1.72,4.66-3.8,20.25-2.9,25.86,1.22,7.6,7.26-16.83,6.87-25.33Z"/>
          <path class="cls-1" d="M261.52,383.21c-52.75-18.97-47.25,34.56-49.45,90.68-.71,18.05-1.8,36.23-.26,54.25.17,1.94,3.21,2.7,3.65.49,8.22-41.35,10.8-110.72,15.2-125.64,3.11-10.53,11.49-11.33,29.66-10.88,5.36.13,5.83-7.25,1.21-8.91Z"/>
          <path class="cls-1" d="M305.89,384.66c-16.16,7.53-13.71,25.17-14.56,40.47-8.49,153.48,1.01,155.28,14.68-4.62,1.4-16.34.54-17.86,2.47-20.33,5.83-7.44,30.19-7.29,38.95-9.09,12.45-2.56-7.05-22.5-41.55-6.43Z"/>
          <path class="cls-1" d="M406.01,375.18c-9.39-1.03-27.47,4.4-31.45,13.93-5.53,13.27,22.3,277.65,15.07,57.04-2.02-61.76-6.25-50,5.86-55.17,4.87-2.08,9.89-4.13,13.92-7.59,3.51-3.01.32-7.8-3.4-8.21Z"/>
          <path class="cls-1" d="M259.4,431.35c-6.83,4.44-16.27,20.87-15.3,29.92.44,4.08,7.4-10.16,8.86-12.64,2.87-4.88,7.09-9.1,9.58-14.13.95-1.92-1.08-4.48-3.14-3.14Z"/>
          <path class="cls-1" d="M262.94,455.37c-3.88,3.66-11.23,14.92-12.95,21.28-1.53,5.66,11.47-5.76,16.51-19.21.79-2.1-2.13-3.43-3.56-2.07Z"/>
          <path class="cls-1" d="M335.66,435.8c-6.55,5-15.7,21.26-15.64,29.84.04,5.9,8.58-10.44,9.7-12.32,2.87-4.82,6.83-9.22,9.16-14.31.85-1.85-1.13-4.81-3.22-3.22Z"/>
          <path class="cls-1" d="M344.84,459.04c-15.74,16.81-19.56,31.59-14.8,27.37,7.35-6.5,13.28-16.62,17.2-25.52.65-1.47-1.12-3.23-2.4-1.85Z"/>
          <path class="cls-1" d="M397.72,440.31c-.74,1.78,1.99,3.23,3.2,1.86,14.63-16.53,5.63-23.1-3.2-1.86Z"/>
          <path class="cls-1" d="M401.19,464.33c-.64,1.74,2.02,3.35,3.2,1.86,23.45-29.43,6.04-26.9-3.2-1.86Z"/>
        </g>
      </g>
      <g>
        <g>
          <path class="cls-13" d="M638.71,523.59c6.2,6.13,9.49,16.32,7.5,24.78-4.44,18.88-22.39,20.48-38.21,23.82-4.74,1-53.97,9.64-54.69,6.27-10.06-47.2-7.06-45.64-2.67-46.57,37.65-8,74.97-21.24,88.07-8.29Z"/>
          <path class="cls-11" d="M639.73,539.01c-.09,15.7-13.6,20.63-27.86,23.23-21.49,3.91-43.19,6.68-64.98,8.27"/>
          <path class="cls-13" d="M357.5,559.92c23.09-30.59,42.05-39.32,71.89-46.99,20.97-5.39,75.42-17.33,96.99-14.69,35.32,4.32,44.1,41.41,37.67,69.75-8.9,39.26-30.16,45.83-51.65,50.11-66.14,13.18-130.6,4.7-143.33-1.81-13.98-7.14-29.89-32.11-11.57-56.38Z"/>
          <path class="cls-6" d="M379.12,548.53c10.79-8.52,20.91-9.36,38.64-16.26,99.41-38.69,113.81-27.27,126.38-1.9,28.17,56.84-47.48,44.28-101.4,67.18-19.56,8.31-47.07,26.1-71.74,15.24-30.16-13.27-17.65-43.9,8.11-64.25Z"/>
          <path class="cls-11" d="M473.23,616.64c16.68.6,35.14-2.19,49.37-7.24"/>
          <path class="cls-11" d="M531.71,605.86c7.87-2.36,16.53-9.82,18.76-17.73"/>
          <path class="cls-11" d="M430.06,610.98c27.64-16.07,69.73-22.32,95.91-26.9"/>
          <path class="cls-11" d="M535.1,582.63c10.76-1.07,23.79-5.59,30.75-27.54"/>
          <path class="cls-11" d="M517.55,512.27c-3.7,7.24-6.79,14.79-9.23,22.54"/>
          <path class="cls-11" d="M529.73,528.91c4.01,5.25,6.58,11.6,7.35,18.16"/>
          <path class="cls-11" d="M536.42,529.36c1.48,1.63,2.48,3.7,2.82,5.87"/>
          <path class="cls-11" d="M451.79,528.21c12.06-4.08,24.53-6.96,37.16-8.59"/>
          <path class="cls-11" d="M463.57,532.36c4.74-.85,9.48-1.7,14.21-2.56"/>
          <path class="cls-8" d="M533.46,573.27c-21.5,9.66-59.7,11.1-90.71,24.26-19.56,8.31-47.07,26.1-71.74,15.25-17.17-7.55-20.5-20.73-15.43-34.45,3.11-.7,5.78-1.06,7.3-1.6,10.84-3.92,17.21-16.58,28.49-18.95,6-1.27,12.24.71,18.34.16,13.7-1.25,24.06-14.71,37.8-15.61,8.12-.54,15.86,3.5,23.97,4.23,11.1,1.01,22-4.16,33.12-3.38,15.19,1.06,28,15.09,28.86,30.1Z"/>
          <path class="cls-11" d="M424.65,613.42c-3.38,2.7-7.52,4.44-11.82,4.96"/>
        </g>
        <g>
          <g>
            <path class="cls-8" d="M467.82,560.48c5.66-12.17,20.77-6.44,12.29,7.37-10.53,17.13-17.01,2.78-12.29-7.37Z"/>
            <path class="cls-10" d="M470.23,573.55c-1.38-3.09,1.77-4.17,2.15-5.32.31-.94-.47-1.94-.3-2.92.26-1.58,2.61-1.95,3.17-3.45.3-.79,0-1.68.05-2.52.09-1.73,1.82-3.19,3.53-2.98-2.11.37-1.39,4.42-1.95,6.05-.62,1.8-2.27,2.42-2.56,2.9-.56.93,1.19,3.54-.47,4.8-.47.36-4.44.97-3.61,3.44Z"/>
          </g>
          <g>
            <path class="cls-8" d="M487.04,560.23c7.38-9.95,21.62-4.6,10.46,12.95-7.3,11.47-22.14,2.81-10.46-12.95Z"/>
            <path class="cls-10" d="M490.77,567.86c.11-1.31-.6-2.77.11-3.88.77-1.19,2.85-1.34,3.09-2.74.1-.58-.76-2.78,1.63-3.59.94-.32,1.99-.16,2.92.21-1.01-.22-1.7,1.08-1.67,2.11.12,4.53-.33,3.16-3.3,4.71-2.4,1.25.51,3.2.05,4.84-.56,1.96-4.77.94-5.12,6.38-3.63-1.86,2.1-5.85,2.29-8.05Z"/>
          </g>
          <g>
            <path class="cls-8" d="M384.43,580.12c7.38-9.95,21.62-4.6,10.46,12.95-7.3,11.47-22.14,2.81-10.46-12.95Z"/>
            <path class="cls-10" d="M388.17,587.76c.11-1.31-.6-2.77.11-3.88.77-1.19,2.85-1.34,3.09-2.74.1-.58-.76-2.78,1.63-3.59.94-.32,1.99-.16,2.92.21-1.01-.22-1.7,1.08-1.67,2.11.12,4.53-.33,3.16-3.3,4.71-2.4,1.25.51,3.2.05,4.84-.56,1.96-4.77.94-5.12,6.38-3.63-1.86,2.1-5.85,2.29-8.05Z"/>
          </g>
          <g>
            <path class="cls-8" d="M457.38,547.98c7.19,10.29-2.54,22.26-15.8,5.88-8.67-10.71,4.42-22.18,15.8-5.88Z"/>
            <path class="cls-10" d="M448.84,549.11c1.23.53,2.85.32,3.69,1.36.9,1.12.37,3.17,1.63,3.85.52.28,2.92.16,2.93,2.72,0,1.01-.49,1.97-1.14,2.73.54-.9-.49-1.98-1.49-2.28-4.39-1.35-2.93-1.33-3.46-4.69-.43-2.71-3.24-.54-4.66-1.51-1.71-1.17.63-4.89-4.49-6.98,2.96-2.89,4.95,3.91,7,4.8Z"/>
          </g>
          <g>
            <path class="cls-8" d="M361.74,594.17c-.69,14.57-18.23,15.01-15.38-2.35,3.54-21.56,15.96-9.8,15.38,2.35Z"/>
            <path class="cls-10" d="M353.94,582.02c2.65,2.54-.06,4.92.03,6.23.08,1.08,1.27,1.76,1.51,2.82.39,1.7-1.82,3.03-1.77,4.77.03.92.68,1.69.99,2.55.62,1.77-.51,3.95-2.32,4.45,1.97-1.24-.42-5.02-.53-6.89-.12-2.06,1.28-3.37,1.38-3.97.18-1.16-2.65-3.07-1.5-5.03.33-.56,4.07-2.8,2.22-4.94Z"/>
          </g>
          <g>
            <path class="cls-8" d="M361.68,617.99c-14.17,1.66-20.92-14.51,2.61-18.99,15.38-2.93,19.82,16.35-2.61,18.99Z"/>
            <path class="cls-10" d="M365.14,608.84c-1.19.94-1.85,2.69-3.34,2.96-1.6.3-3.37-1.33-4.73-.43-.56.37-1.73,2.83-4.3,1.47-1.01-.54-1.7-1.55-2.12-2.61.61,1.02,2.24.57,3.09-.27,3.71-3.67,2.91-2.22,6.55-.95,2.94,1.02,2.28-2.96,4.02-3.86,2.08-1.08,4.56,3.26,9.4-.74,1.3,4.52-6.57,2.85-8.56,4.43Z"/>
          </g>
          <g>
            <path class="cls-8" d="M384.17,624.41c-11.19,5.26-21.19-6.18-3.07-16.33,11.84-6.63,20.79,8,3.07,16.33Z"/>
            <path class="cls-10" d="M384.5,615.94c-.72,1.1-.78,2.72-1.93,3.36-1.24.69-3.14-.17-4.01.94-.36.46-.64,2.81-3.13,2.39-.98-.16-1.83-.8-2.46-1.57.79.67,2-.14,2.47-1.07,2.04-4.04,1.79-2.62,5.13-2.58,2.7.03,1.06-3.06,2.24-4.28,1.42-1.46,4.64,1.43,7.52-3.19,2.31,3.36-4.62,4.15-5.83,6Z"/>
          </g>
          <g>
            <path class="cls-8" d="M472.37,557.68c-13.67-.24-14.58-16.67,1.78-14.48,20.3,2.71,9.63,14.68-1.78,14.48Z"/>
            <path class="cls-10" d="M483.53,550.03c-2.31,2.56-4.61.08-5.84.2-1.01.1-1.62,1.24-2.6,1.49-1.58.41-2.89-1.62-4.52-1.53-.86.05-1.56.69-2.37,1-1.64.63-3.72-.37-4.24-2.05,1.21,1.82,4.69-.54,6.44-.69,1.93-.17,3.19,1.11,3.76,1.18,1.09.14,2.81-2.57,4.67-1.55.53.29,2.74,3.73,4.7,1.94Z"/>
          </g>
          <g>
            <path class="cls-8" d="M386.34,646.81c-13.67-.24-14.58-16.67,1.78-14.48,20.3,2.71,9.63,14.68-1.78,14.48Z"/>
            <path class="cls-10" d="M397.51,639.16c-2.31,2.56-4.61.08-5.84.2-1.01.1-1.62,1.24-2.6,1.49-1.58.41-2.89-1.62-4.52-1.53-.86.05-1.56.69-2.37,1-1.64.63-3.72-.37-4.24-2.05,1.21,1.82,4.69-.54,6.44-.69,1.93-.17,3.19,1.11,3.76,1.18,1.09.14,2.81-2.57,4.67-1.55.53.29,2.74,3.73,4.7,1.94Z"/>
          </g>
          <g>
            <path class="cls-8" d="M415.03,596.44c-13.67-.24-14.58-16.67,1.78-14.48,20.3,2.71,9.63,14.68-1.78,14.48Z"/>
            <path class="cls-10" d="M426.19,588.79c-2.31,2.56-4.61.08-5.84.2-1.01.1-1.62,1.24-2.6,1.49-1.58.41-2.89-1.62-4.52-1.53-.86.05-1.56.69-2.37,1-1.64.63-3.72-.37-4.24-2.05,1.21,1.82,4.69-.54,6.44-.69,1.93-.17,3.19,1.11,3.76,1.18,1.09.14,2.81-2.57,4.67-1.55.53.29,2.74,3.73,4.7,1.94Z"/>
          </g>
          <g>
            <path class="cls-8" d="M521.86,556.79c12.47-.21,16.94,14.45-3.92,16.3-13.64,1.21-15.83-15.96,3.92-16.3Z"/>
            <path class="cls-10" d="M518.05,564.46c1.12-.72,1.85-2.18,3.17-2.29,1.42-.12,2.82,1.46,4.08.79.52-.28,1.75-2.32,3.87-.9.83.56,1.35,1.49,1.62,2.46-.44-.95-1.9-.69-2.71-.04-3.55,2.87-2.73,1.68-5.79.26-2.47-1.15-2.24,2.37-3.83,3.01-1.91.76-3.68-3.24-8.24-.18-.74-4.05,5.97-1.91,7.84-3.11Z"/>
          </g>
          <g>
            <path class="cls-8" d="M399.53,598.7c12.47-.21,16.94,14.45-3.92,16.3-13.64,1.21-15.83-15.96,3.92-16.3Z"/>
            <path class="cls-10" d="M395.72,606.37c1.12-.72,1.85-2.18,3.17-2.29,1.42-.12,2.82,1.46,4.08.79.52-.28,1.75-2.32,3.87-.9.83.56,1.35,1.49,1.62,2.46-.44-.95-1.9-.69-2.71-.04-3.55,2.87-2.73,1.68-5.79.26-2.47-1.15-2.24,2.37-3.83,3.01-1.91.76-3.68-3.24-8.24-.18-.74-4.05,5.97-1.91,7.84-3.11Z"/>
          </g>
          <g>
            <path class="cls-8" d="M513.15,543.53c9.1,8.93,1.62,22.7-14.68,8.83-10.66-9.07.27-22.97,14.68-8.83Z"/>
            <path class="cls-10" d="M504.84,546.25c1.32.3,2.91-.22,3.94.67,1.11.95.96,3.1,2.35,3.54.57.18,2.94-.38,3.43,2.17.19,1.01-.12,2.05-.63,2.94.37-1-.86-1.88-1.92-2-4.64-.52-3.18-.79-4.33-4.03-.94-2.62-3.34.07-4.94-.64-1.92-.84-.28-5-5.78-6.13,2.42-3.44,5.67,2.98,7.89,3.48Z"/>
          </g>
          <g>
            <path class="cls-8" d="M456.48,575.54c9.1,8.93,1.62,22.7-14.68,8.83-10.66-9.07.27-22.97,14.68-8.83Z"/>
            <path class="cls-10" d="M448.16,578.26c1.32.3,2.91-.22,3.94.67,1.11.95.96,3.1,2.35,3.54.57.18,2.94-.38,3.43,2.17.19,1.01-.12,2.05-.63,2.94.37-1-.86-1.88-1.92-2-4.64-.52-3.18-.79-4.33-4.03-.94-2.62-3.34.07-4.94-.64-1.92-.84-.28-5-5.78-6.13,2.42-3.44,5.67,2.98,7.89,3.48Z"/>
          </g>
          <g>
            <path class="cls-8" d="M438.57,581.76c14.62-1.01,17.11,16.44-.55,15.62-21.92-1.01-11.64-14.78.55-15.62Z"/>
            <path class="cls-10" d="M427.36,590.95c2.22-2.94,4.91-.51,6.22-.76,1.06-.2,1.61-1.47,2.63-1.83,1.65-.58,3.24,1.46,4.97,1.21.91-.13,1.6-.88,2.43-1.28,1.69-.83,4,.05,4.71,1.8-1.46-1.83-4.96,1.01-6.81,1.33-2.04.36-3.51-.89-4.13-.91-1.18-.05-2.76,3-4.84,2.08-.59-.26-3.27-3.73-5.19-1.64Z"/>
          </g>
          <g>
            <path class="cls-8" d="M448.24,574.14c-12.05,4.39-21.31-8.36-1.65-17.15,12.85-5.75,20.73,10.2,1.65,17.15Z"/>
            <path class="cls-10" d="M449.37,565.42c-.85,1.07-1.06,2.73-2.31,3.29-1.34.59-3.23-.47-4.23.6-.41.44-.93,2.84-3.46,2.18-1-.26-1.81-1-2.4-1.85.75.77,2.08.04,2.65-.87,2.48-3.98,2.09-2.54,5.54-2.19,2.79.29,1.38-3.06,2.72-4.21,1.6-1.38,4.66,1.91,8.07-2.59,2.08,3.68-5.16,3.86-6.58,5.65Z"/>
          </g>
          <g>
            <path class="cls-8" d="M462.26,585.45c-11.58-5.55-8.94-21.1,11.12-13.2,13.11,5.17,7.22,21.98-11.12,13.2Z"/>
            <path class="cls-10" d="M469.3,580.14c-1.36.14-2.7,1.15-3.97.65-1.36-.54-1.92-2.64-3.39-2.61-.61.01-2.68,1.33-3.98-.95-.51-.9-.55-2-.36-3.01-.03,1.07,1.43,1.51,2.48,1.28,4.59-1.01,3.28-.29,5.44,2.43,1.75,2.19,3.16-1.15,4.91-1,2.11.18,1.9,4.67,7.51,3.96-1.18,4.07-6.37-.99-8.65-.75Z"/>
          </g>
          <g>
            <path class="cls-8" d="M431.14,578.77c-5.66,12.17-20.77,6.44-12.29-7.37,10.53-17.13,17.01-2.78,12.29,7.37Z"/>
            <path class="cls-10" d="M428.73,565.71c1.38,3.09-1.77,4.17-2.15,5.32-.31.94.47,1.95.3,2.92-.26,1.58-2.61,1.95-3.17,3.45-.3.79,0,1.67-.05,2.52-.09,1.73-1.82,3.19-3.53,2.98,2.11-.37,1.39-4.42,1.95-6.05.62-1.8,2.27-2.42,2.56-2.9.56-.93-1.19-3.54.47-4.8.47-.36,4.44-.97,3.61-3.44Z"/>
          </g>
          <g>
            <path class="cls-8" d="M402.9,568.64c-7.38,9.95-21.62,4.6-10.46-12.95,7.3-11.47,22.14-2.81,10.46,12.95Z"/>
            <path class="cls-10" d="M399.17,561.01c-.11,1.31.6,2.77-.11,3.88-.77,1.19-2.85,1.34-3.09,2.74-.1.58.76,2.78-1.63,3.59-.94.32-1.99.16-2.92-.21,1.01.22,1.7-1.08,1.67-2.11-.12-4.53.33-3.16,3.3-4.71,2.4-1.25-.51-3.2-.05-4.84.56-1.96,4.77-.94,5.12-6.38,3.63,1.86-2.1,5.85-2.29,8.05Z"/>
          </g>
          <g>
            <path class="cls-8" d="M400.08,575.18c-7.19-10.29,2.54-22.26,15.8-5.88,8.67,10.71-4.42,22.18-15.8,5.88Z"/>
            <path class="cls-10" d="M408.62,574.05c-1.23-.53-2.85-.32-3.69-1.36-.9-1.12-.37-3.17-1.63-3.85-.52-.28-2.92-.16-2.93-2.72,0-1.01.49-1.97,1.14-2.73-.54.9.49,1.98,1.49,2.28,4.39,1.35,2.93,1.33,3.46,4.69.43,2.71,3.24.54,4.66,1.51,1.71,1.17-.63,4.89,4.49,6.98-2.96,2.89-4.95-3.91-7-4.8Z"/>
          </g>
          <g>
            <path class="cls-8" d="M388.17,587.76c.69-14.57,18.23-15.01,15.38,2.35-3.54,21.56-15.96,9.8-15.38-2.35Z"/>
            <path class="cls-10" d="M395.96,599.9c-2.65-2.54.06-4.92-.03-6.23-.08-1.08-1.27-1.76-1.51-2.82-.39-1.7,1.82-3.03,1.77-4.77-.03-.92-.68-1.69-.99-2.55-.62-1.77.51-3.95,2.32-4.45-1.97,1.24.42,5.02.53,6.89.12,2.06-1.28,3.37-1.38,3.97-.18,1.16,2.65,3.07,1.5,5.03-.33.56-4.07,2.8-2.22,4.94Z"/>
          </g>
          <g>
            <path class="cls-8" d="M426.58,547.2c14.17-1.66,20.92,14.51-2.61,18.99-15.38,2.93-19.82-16.35,2.61-18.99Z"/>
            <path class="cls-10" d="M423.12,556.35c1.19-.94,1.85-2.69,3.34-2.96,1.6-.3,3.37,1.33,4.73.43.56-.37,1.73-2.83,4.3-1.47,1.01.54,1.7,1.55,2.12,2.61-.61-1.02-2.24-.57-3.09.27-3.71,3.67-2.91,2.22-6.55.95-2.94-1.02-2.28,2.96-4.02,3.86-2.08,1.08-4.56-3.26-9.4.74-1.3-4.52,6.57-2.85,8.56-4.43Z"/>
          </g>
          <g>
            <path class="cls-8" d="M408.98,593.56c11.19-5.26,21.19,6.18,3.07,16.33-11.84,6.63-20.79-8-3.07-16.33Z"/>
            <path class="cls-10" d="M408.65,602.04c.72-1.1.78-2.72,1.93-3.36,1.24-.69,3.14.17,4.01-.94.36-.46.64-2.81,3.13-2.39.98.16,1.83.8,2.46,1.57-.79-.67-2,.14-2.47,1.07-2.04,4.04-1.79,2.62-5.13,2.58-2.7-.03-1.06,3.06-2.24,4.28-1.42,1.46-4.64-1.43-7.52,3.19-2.31-3.36,4.62-4.15,5.83-6Z"/>
          </g>
          <g>
            <path class="cls-8" d="M387.26,564.52c13.67.24,14.58,16.67-1.78,14.48-20.3-2.71-9.63-14.68,1.78-14.48Z"/>
            <path class="cls-10" d="M376.09,572.16c2.31-2.56,4.61-.08,5.84-.2,1.01-.1,1.62-1.24,2.6-1.49,1.58-.41,2.89,1.62,4.52,1.53.86-.05,1.56-.69,2.37-1,1.64-.63,3.72.37,4.24,2.05-1.21-1.82-4.69.54-6.44.69-1.93.17-3.19-1.11-3.76-1.18-1.09-.14-2.81,2.57-4.67,1.55-.53-.29-2.74-3.73-4.7-1.94Z"/>
          </g>
          <g>
            <path class="cls-8" d="M368.89,580.81c-12.47.21-16.94-14.45,3.92-16.3,13.64-1.21,15.83,15.96-3.92,16.3Z"/>
            <path class="cls-10" d="M372.7,573.14c-1.12.72-1.85,2.18-3.17,2.29-1.42.12-2.82-1.46-4.08-.79-.52.28-1.75,2.32-3.87.9-.83-.56-1.35-1.49-1.62-2.46.44.95,1.9.69,2.71.04,3.55-2.87,2.73-1.68,5.79-.26,2.47,1.15,2.24-2.37,3.83-3.01,1.91-.76,3.68,3.24,8.24.18.74,4.05-5.97,1.91-7.84,3.11Z"/>
          </g>
          <g>
            <path class="cls-8" d="M369.68,604.67c-9.1-8.93-1.62-22.7,14.68-8.83,10.66,9.07-.27,22.97-14.68,8.83Z"/>
            <path class="cls-10" d="M377.99,601.95c-1.32-.3-2.91.22-3.94-.67-1.11-.95-.96-3.1-2.35-3.54-.57-.18-2.94.38-3.43-2.17-.19-1.01.12-2.05.63-2.94-.37,1,.86,1.88,1.92,2,4.64.52,3.18.79,4.33,4.03.94,2.62,3.34-.07,4.94.64,1.92.84.28,5,5.78,6.13-2.42,3.44-5.67-2.98-7.89-3.48Z"/>
          </g>
          <g>
            <path class="cls-8" d="M504.75,580.72c-14.62,1.01-17.11-16.44.55-15.62,21.92,1.01,11.64,14.78-.55,15.62Z"/>
            <path class="cls-10" d="M515.96,571.53c-2.22,2.94-4.91.51-6.22.76-1.06.2-1.61,1.47-2.63,1.83-1.65.58-3.24-1.46-4.97-1.21-.91.13-1.6.88-2.43,1.28-1.69.83-4-.05-4.71-1.8,1.46,1.83,4.96-1.01,6.81-1.33,2.04-.36,3.51.89,4.13.91,1.18.05,2.76-3,4.84-2.08.59.26,3.27,3.73,5.19,1.64Z"/>
          </g>
          <g>
            <path class="cls-8" d="M327.38,619.71c-14.62,1.01-17.11-16.44.55-15.62,21.92,1.01,11.64,14.78-.55,15.62Z"/>
            <path class="cls-10" d="M338.59,610.52c-2.22,2.94-4.91.51-6.22.76-1.07.2-1.61,1.47-2.63,1.83-1.65.58-3.24-1.46-4.97-1.21-.91.13-1.6.88-2.43,1.28-1.69.83-4-.05-4.71-1.8,1.46,1.83,4.96-1.01,6.81-1.33,2.04-.36,3.51.89,4.13.91,1.18.05,2.76-3,4.84-2.08.59.26,3.27,3.73,5.19,1.64Z"/>
          </g>
          <g>
            <path class="cls-8" d="M487.2,539.49c12.05-4.39,21.31,8.36,1.65,17.15-12.85,5.75-20.73-10.2-1.65-17.15Z"/>
            <path class="cls-10" d="M486.07,548.22c.85-1.07,1.06-2.73,2.31-3.29,1.34-.59,3.23.47,4.23-.6.41-.44.93-2.84,3.46-2.18,1,.26,1.81,1,2.4,1.85-.75-.77-2.08-.04-2.65.87-2.48,3.98-2.09,2.54-5.54,2.19-2.79-.29-1.38,3.06-2.72,4.21-1.6,1.38-4.66-1.91-8.07,2.59-2.08-3.68,5.16-3.86,6.58-5.65Z"/>
          </g>
          <g>
            <path class="cls-8" d="M359.05,614.61c10.03-8,22.86,1.15,7.02,15.74-10.36,9.54-22.9-3.07-7.02-15.74Z"/>
            <path class="cls-10" d="M360.75,623.25c.46-1.28.14-2.93,1.15-3.85,1.08-.99,3.21-.58,3.82-1.91.25-.55-.03-2.99,2.58-3.16,1.03-.07,2.04.37,2.86.99-.95-.49-1.98.62-2.23,1.67-1.09,4.57-1.17,3.07-4.55,3.84-2.73.62-.34,3.34-1.24,4.85-1.08,1.82-5.03-.33-6.82,5.03-3.14-2.83,3.66-5.3,4.44-7.45Z"/>
          </g>
          <g>
            <path class="cls-8" d="M375.68,578.85c11.58,5.55,8.94,21.1-11.12,13.2-13.11-5.17-7.22-21.98,11.12-13.2Z"/>
            <path class="cls-10" d="M368.65,584.15c1.36-.14,2.7-1.15,3.97-.65,1.36.54,1.92,2.64,3.39,2.61.61-.01,2.68-1.33,3.98.95.51.9.55,2,.36,3.01.03-1.07-1.43-1.51-2.48-1.28-4.59,1.01-3.28.29-5.44-2.43-1.75-2.19-3.16,1.15-4.91,1-2.11-.18-1.9-4.67-7.51-3.96,1.18-4.07,6.37.99,8.65.75Z"/>
          </g>
        </g>
        <g>
          <path class="cls-4" d="M426.58,520.85c-11.6-1.1-56.09,20.88-15.03,9.55,5.41-1.49,11.37-2.29,16.19-5.27,2.04-1.27,1.05-4.07-1.16-4.28Z"/>
          <path class="cls-4" d="M442.97,515.62c-1.34-1.39-3.94.33-3.04,1.88,1.46,2.47,4.86.01,3.04-1.88Z"/>
          <path class="cls-4" d="M455.12,512.95c-3.38-2.88-5.81,2.61-2.42,2.61,2.98,0,3.32-1.84,2.42-2.61Z"/>
          <path class="cls-4" d="M554.66,519.7c-8.69-12.22-19.18-10.17-17.14-7.7,2.97,3.59,7.95,4.05,12.54,14.51,2.85,6.49,3.14,13.75,6.55,20,1.03,1.9,4.5,1.67,4.89-.64,1.51-8.92-1.63-18.85-6.84-26.17Z"/>
          <path class="cls-4" d="M551.79,562.24c-4.3,3.49-7.47,9.95-17.99,14.8-1.56.72-.44,3.1,1.14,2.7,20.42-5.19,21.6-21.35,16.86-17.5Z"/>
          <path class="cls-4" d="M560.16,556.88c-.48-.97-2.65-.75-1.85,1.48.59,1.66,2.59.02,1.85-1.48Z"/>
          <path class="cls-4" d="M533.25,504.06c-.44-1.59-2.71-1.61-3.16,0-.92,3.41,4.09,3.46,3.16,0Z"/>
          <path class="cls-4" d="M634.8,534.48c-6.58-30.04-62.9,1.79-54.52,1.9,20.58.26,24.03-8.81,45.32,5.17,4.84,3.18,10.3-2.05,9.2-7.07Z"/>
          <path class="cls-4" d="M610.58,551.84c-14.24.14-32.46,6.51-26.31,7.56,18.92,3.22,34.97-7.64,26.31-7.56Z"/>
          <path class="cls-4" d="M621.06,550.59c-3.64-1.32-4.43,1.97-2.45,2.09,4.17.27,3.42-1.74,2.45-2.09Z"/>
          <path class="cls-4" d="M447.26,598.11c-1.69.37-1.96.75-10.57,5.72-1.65.95-.18,3.46,1.49,2.55,8.66-4.76,9.16-4.81,10.36-6.08.92-.98,0-2.47-1.28-2.19Z"/>
          <path class="cls-4" d="M496.85,587.17c-.82-.93-3.05-1.52-5.73.16-1.46.91-.19,2.95,1.32,2.27,1.47-.67,6.28-.32,4.41-2.43Z"/>
          <path class="cls-4" d="M501.43,594.66c-4.52,1.34-27.91,12.58-32.39,15.09-6.09,3.42,19.64-1.68,33.78-11.8,1.57-1.12.7-3.92-1.39-3.3Z"/>
          <path class="cls-4" d="M512.35,597.27c-4.05,1.14-13.87,5.57-15.25,6.05-2.51.86-1.52,4.64,1.1,4.01,15.25-3.7,17.81-11.08,14.14-10.05Z"/>
          <path class="cls-4" d="M434.59,533.43c-6.05-.25-20.7,6.62-18.41,8.01,3.11,1.89,16.57-1.71,19.54-3.83,1.78-1.27,1.2-4.08-1.13-4.18Z"/>
          <path class="cls-4" d="M503.57,516.77c-3.01-1.94-10.08.02-7.15,1.47,8.76,4.36,8.8-.41,7.15-1.47Z"/>
          <path class="cls-4" d="M497.86,528.24c-4.58-2.95-9.63,2.27-7.04,3.25,6.11,2.3,10.08-1.29,7.04-3.25Z"/>
        </g>
      </g>
      <g>
        <path class="cls-7" d="M62.08,540.72c23.13,19.77,40.36,9.02,38.38-3.19-2.18-13.38-17.32-7.45-17.72-7.37-12.27,2.18-28.12-14.37-15.77-30.53,7.23-9.46,17.53-6.12,21.77-6.27,16.74-.61,20.07-26.14-10.12-22.33-33.79,4.27-44.47,45.83-16.54,69.7Z"/>
        <path class="cls-15" d="M230.52,431.18c1.29,14.73-.05,87.86-2.09,127.1-1.59,30.64-9.67,37.44-33.12,43.95-31.54,8.75-87.88,4.95-99.73-19.85-8.62-18.05-6.35-44.22-10.36-147.92,3.25-6.37-.52,2.54,145.3-3.28Z"/>
        <path class="cls-14" d="M195.92,452.66c28.92-4.1,42.46-20.53,29.87-28.28-18.69-11.5-57.56-10.64-84.19-9.24-101.81,5.33-54.81,52.98,54.32,37.53Z"/>
        <path class="cls-8" d="M91.8,443.29c14.54,9.82,52.32,16.7,104.11,9.37,14.12-2,24.56-6.94,30.09-12.38-31.61-17.14-107.25-19.09-134.21,3.01Z"/>
        <path class="cls-11" d="M114.85,442.63c22.4-8.79,47.36-6.99,71.35-5.05"/>
        <path class="cls-11" d="M195.95,439.6c3.42-.26,6.93.7,9.74,2.68"/>
        <path class="cls-11" d="M146.44,447.81c8.19-1.77,16.71-2.03,24.99-.76"/>
        <path class="cls-11" d="M187,594.42c9.49-1.02,19.81-3.02,25.91-10.36,5.63-6.77,6.16-16.28,6.44-25.08"/>
        <path class="cls-11" d="M219.88,547.79c.32-4.38.23-8.8-.28-13.16"/>
        <g>
          <path class="cls-4" d="M67.46,483.42c-.16-4.45-11.77-5.36-15.73,11.39-3.41,14.43,9.16,25.05,7.52,19.36-4.86-16.85,8.5-23.11,8.22-30.75Z"/>
          <path class="cls-4" d="M77.2,479.77c-6.62.41-4.44,4.18-1.67,4.3,5.87.25,3.92-4.43,1.67-4.3Z"/>
          <path class="cls-4" d="M70.46,534.45c-2.05-4.85-7.5,1.82-2.75,2.52,1.58.23,2.99-.71,2.75-2.52Z"/>
          <path class="cls-4" d="M78.28,538.43c-1.42-2.43-5.42-.04-4.45,2.26,1.12,2.65,5.93.28,4.45-2.26Z"/>
          <path class="cls-4" d="M128.57,444.1c-1.27.97-.6,3.65,1.22,2.9,11.79-4.85,13.29-2.89,19.07-4.52,6.17-1.75-6.1-9.19-20.29,1.63Z"/>
          <path class="cls-4" d="M184.27,440.21c-6.14-1.49-10.5,1.42-7.84,2.16,10.33,2.89,9.29-1.81,7.84-2.16Z"/>
          <path class="cls-4" d="M168.49,466.4c-16.91-8.78-31.64-.68-55.94-7.11-5.44-1.44-21.48-5.87-17.78-1.2,25.51,32.18,90.8,17.18,73.72,8.32Z"/>
          <path class="cls-4" d="M132.14,485.49c-4.81-2.27-10.21-1.18-15.41-1.3-4.6-.11-9.5-1.75-14.01-1.04-1.92.3.7,5.85,12.04,10.53,18.54,7.64,23.44-5.32,17.38-8.19Z"/>
          <path class="cls-4" d="M135.89,586.5c-5.96-5.16-14.15-6.36-20.02-11.51-8.1-7.11-8.42-17.27-13.16-26.05-2.36-4.36-8.64,15.2,3.86,31.96,13.22,17.74,37.93,13.06,29.33,5.6Z"/>
          <path class="cls-4" d="M166.86,593.88c-1.99-5-17.71-3.71-6.47.9,1.58.65,3.46,1.96,5.18,1.38.87-.29,1.69-1.31,1.3-2.29Z"/>
          <path class="cls-4" d="M195.73,541.11c-2.2,2.85.87,5.99,3.2,4.64,3.5-2.07.33-7.54-3.2-4.64Z"/>
          <path class="cls-4" d="M191.37,564.84c-.28-4.07-5.8-3.46-5.8.1,0,3.99,6.05,3.67,5.8-.1Z"/>
          <path class="cls-4" d="M207.99,568.57c-1.82-1.67-4.05,1.02-2.47,2.47,1.82,1.67,4.05-1.02,2.47-2.47Z"/>
          <path class="cls-4" d="M221.13,460.7c-3.74,7.9-4.86,39.24-3.78,48.15.27,2.23,3.73,3.21,4.29.58,3.82-17.74,2.26-54.58-.51-48.73Z"/>
        </g>
        <g>
          <path class="cls-3" d="M134.64,418.86c-18.85-3.35-42.58,15.57-34.28,13.98.47-.09,29.29-5.92,34.96-8.79,2.09-1.06,1.72-4.77-.68-5.19Z"/>
          <path class="cls-3" d="M185.23,421.97c-15.1-6.22-40.54-3.07-32.04-.52,4.52,1.36,27.51,4.96,31.46,4.82,2.61-.09,2.78-3.39.58-4.29Z"/>
          <path class="cls-3" d="M199.87,422.52c-2.45-.23-2.97,3.76-.58,4.29,6.32,1.41,5.61,2,7.07,1.84,3.46-.39,1.51-5.38-6.49-6.13Z"/>
        </g>
      </g>
      <g class="cls-24">
        <g class="cls-20">
          <g>
            <g>
              <path class="cls-16" d="M65.14-35.44c7.62-.53,16.87-4.12,23.87.46-14.42,7.77-35.24,5.45-50.95,3.43-6.06-.78-20.48-8.2-25.33-3.26-.95.96,38.12,29.16,42.9,31.69,39.79,21.02,58.61,22.64,71.63,30.08,8.87,5.07-3.85,6.26-37.81-8.38-18.5-7.98-31.76-16.61-26.57-10.09,32.67,41.01,33.76,43.7,32.23,48.19C65.67,25.08,77.07,23.09,26.47-16.11,8.82-29.73,3.06-38.53.91-35.32,5.76-19.64,17.64,12.28,11.73,22.49-.88,14.81,21.89-.95-40.93-101.89c-2.77-4.45-5.84-9.9-2.76-14.7,18.99-29.68,8.13,88.17,108.83,81.15Z"/>
              <g>
                <g>
                  <path class="cls-9" d="M63.96,87.63c-.4,6.67-4.09,12.61-6.67,18.77-7.79,18.6,4.08,21.85,7.91,27.24,5.63,7.91-.02,19.1,2.29,28.53,4.18,17.05,18.07,10.35,20.15,44.23,13.36-6.62,16.21-37.95,20.8-44.86,6.2-9.33,24.28-13.5,13.85-41.9-3.34-9.08-8.23-17.85-8.89-27.5-.59-8.64,2.26-17.57-.32-25.84-3.15-10.05-24.43-27.03-28.9-27.01-4.87.02-10.36,9.68-13.37,13.26-14.75,17.47-6.07,22.06-6.86,35.08Z"/>
                  <path class="cls-11" d="M92.26,184.26c11.86-37.65-14.75-67.73-8.76-144.89"/>
                  <path class="cls-11" d="M79.35,169.68c-4.12-30.77,8.3-36.52,10.18-46.1"/>
                  <path class="cls-11" d="M110.98,145.43c3.01-19.38-21.45-29.58-25.92-47.31"/>
                  <path class="cls-11" d="M65.23,120.4c-5.36-4.5,15.05-37.48,17.77-43.97"/>
                  <path class="cls-11" d="M105.75,95.41c1.42-17.02-15-27.28-23.07-39.65"/>
                </g>
                <g>
                  <path class="cls-9" d="M110.3,44.94c12.31,12.04,17.86,8.03,25.31,8.26,15.76.5,30.93,24.7,43.03,22.04,5.21-1.14,6.81-9.17,19.21-3.7,11.94,5.26,12.74,8.56,32.05.77,6.54-2.64,13.98-4.94,20.47-2.18-10.92-24.19-33.53-23.18-44.09-28.12-15.67-7.33-24.07-27.14-40.97-30.83-14.11-3.08-29.1,6.56-42.82,2.06-8.02-2.63-24.07-10.59-29.36,1.18-4.44,9.87,11.01,24.49,17.16,30.51Z"/>
                  <path class="cls-11" d="M231.42,60.8c-74.56,3.13-98.12-38.37-138.58-45.6"/>
                  <path class="cls-11" d="M223.73,69.34c-6.66,1.83-24.7-7.75-30.62-11.22"/>
                  <path class="cls-11" d="M207.8,50.26c-14.04-6.21-26.26-4.29-40.58.11"/>
                  <path class="cls-11" d="M175.83,65.73c-16.76-3.81-24.91-17.9-35.5-28.89"/>
                  <path class="cls-11" d="M179.76,30.98c-18.78-14.53-44.86-1.26-58.36-4.99"/>
                  <path class="cls-11" d="M124.73,43.67c-11.99-4.75-18.52-17.35-21.38-25.76"/>
                </g>
                <g>
                  <path class="cls-9" d="M-8.44,6.29c-14.34,16.6-.56,24.91,1.24,34.41,2.41,12.69-14.26,26.44-5.82,37.97,1.56,2.14,3.86,3.6,5.74,5.45,9.48,9.32,6.53,25.24,11.61,37.52,6.45,15.59,27.86,28.49,46.21,31.84-11.17-17.73-15.04-28.18-4.94-47.86,12.98-25.3-2.58-24.54-7.43-41.87-3.49-12.48,7.85-33.65-13.95-58.88C8.39-13.47,5-9.27-8.44,6.29Z"/>
                  <path class="cls-11" d="M27.91,129.87c-11.96-26.93,8.45-30.01-15.79-120.57-1.34-5.01-3.37-11.63-5.55-16.35"/>
                  <path class="cls-11" d="M16.2,126.06c-4.02-13.47-4.19-22.46,8.51-42.6"/>
                  <path class="cls-11" d="M40.59,105.52c-.11-17.49-2.96-18.47-16.75-36.47"/>
                  <path class="cls-11" d="M3.06,86.35c-7.49-24.83,15.38-32.38,16.05-47.73"/>
                  <path class="cls-11" d="M32.68,46.3c1.11-13.22-12.16-22.19-18.88-30.55"/>
                  <path class="cls-11" d="M-2.51,30.23C-3.09,17.48,3,11.34,10.26,2.91"/>
                </g>
                <g>
                  <path class="cls-9" d="M74.05-58.39c6.77,1.04,12.43,7.33,19.22,6.44,4.98-.65,8.56-4.97,12.9-7.51,18.65-10.89,25.7,10.28,37.4,12.53,13.14,2.53,25.39-16.76,55.52,24.74-5.71-2.21-12.25-4.39-17.74-1.67-5.5,2.73-17.71,19.95-32.81,15.78-6.09-1.68-10.79-6.75-16.87-8.47-9.04-2.56-18.16,2.78-27.21,5.31-19.85,5.56-67.2-6.87-58.88-25.43,4.2-9.36,17.24-23.46,28.47-21.73Z"/>
                  <path class="cls-11" d="M182.75-31.94c-28.73-13.65-66.19,25.04-138.11-1.18"/>
                  <path class="cls-11" d="M169.96-24.82c-10.98,1.8-23.1,1.37-32.42-4.72"/>
                  <path class="cls-11" d="M139.13-42.45c-12.8-4.14-25.13,8.79-33.51,18.29"/>
                  <path class="cls-11" d="M98.2-15.83c-11.2,1.19-18.97-3.65-28.09-10.25"/>
                  <path class="cls-11" d="M109.17-42.41c-20.78-3.71-46.41,6.36-50.05,13.85"/>
                </g>
              </g>
            </g>
            <g>
              <path class="cls-7" d="M24.55,21.28c1.36,5.59,8.13,9.53,13.2,9.22,7.18-.43,13.87-9.25,14.46-16.53.68-8.46-7.91-16.54-16.46-13.57-6.65,2.31-12.82,14.18-11.2,20.88Z"/>
              <path class="cls-7" d="M74.37-27.4c8.05-6.98,21.22,2.2,14.4,15.58-9.49,18.62-23.57-7.63-14.4-15.58Z"/>
              <path class="cls-15" d="M64.28-23.98c15.3-1.22,17.91,29.11,1.72,23.29-9.1-3.27-15.3-22.21-1.72-23.29Z"/>
              <path class="cls-15" d="M67.09,12.42c9.93,7.46,24-1.34,21.62-13.54-4.23-21.67-41.53-1.42-21.62,13.54Z"/>
              <path class="cls-7" d="M47.08-18.26c-13.76-1.39-25.59,20.53-6.77,27.36,5.05,1.83,10.9,1.71,15.6-.88C70.87-.01,60.79-16.87,47.08-18.26Z"/>
              <path class="cls-7" d="M50.89-.98c-11.34,9.91-4.8,25.24,7.07,25.82,23.59,1.15,12.99-43.33-7.07-25.82Z"/>
              <path class="cls-8" d="M58.62,16.26c-4,.94-5.98-4-2.66-6.27,4.48-3.07,8.49,4.9,2.66,6.27Z"/>
              <path class="cls-8" d="M91.83,2.97c2.1-4.05-2.38-8.91-6.09-5.29-4.51,4.4,2.98,11.3,6.09,5.29Z"/>
              <path class="cls-8" d="M37.6-6.82c5.93-5.78-4.75-11.76-7.24-4.59-1.75,5.01,3.57,8.17,7.24,4.59Z"/>
              <path class="cls-8" d="M30.24,31.42c-5.18.07-5.92-7.37-.76-8.13,5.71-.84,6.69,8.05.76,8.13Z"/>
            </g>
            <g>
              <path class="cls-7" d="M14.94,17.49c-5.3-2.26-8.06-9.58-6.93-14.53,1.6-7.01,11.41-12.17,18.68-11.55,8.46.72,15.02,10.52,10.69,18.47-3.37,6.18-16.09,10.32-22.44,7.61Z"/>
              <path class="cls-15" d="M71.14-23.67c8.21-6.79,1.31-21.29-13-16.76-19.93,6.3,3.66,24.5,13,16.76Z"/>
              <path class="cls-7" d="M66.11-14.28c3.72-14.89-25.78-22.45-22.69-5.52,1.73,9.52,19.39,18.73,22.69,5.52Z"/>
              <path class="cls-7" d="M30.66-23.03c-5.73-11.02,5.26-23.45,16.91-19.1,20.68,7.73-5.42,41.2-16.91,19.1Z"/>
              <path class="cls-15" d="M57.64,1.75c-.88,13.8-24.45,21.87-28.1,2.19-.98-5.28.11-11.03,3.43-15.24,10.58-13.41,25.55-.7,24.67,13.06Z"/>
              <path class="cls-15" d="M41.22-4.84c-11.63,9.56-25.69.59-24.31-11.21,2.74-23.46,44.87-5.7,24.31,11.21Z"/>
              <path class="cls-8" d="M25.48-15.3c-1.59,3.79,2.97,6.56,5.75,3.66,3.76-3.92-3.44-9.18-5.75-3.66Z"/>
              <path class="cls-8" d="M44.05-45.87c4.34-1.4,8.39,3.81,4.21,6.88-5.08,3.73-10.66-4.8-4.21-6.88Z"/>
              <path class="cls-8" d="M44.81,9.22c6.68-4.9,10.82,6.61,3.34,7.9-5.23.9-7.47-4.87-3.34-7.9Z"/>
              <path class="cls-8" d="M5.88,10.21c-.92,5.1,6.3,7.06,7.9,2.09,1.77-5.5-6.84-7.92-7.9-2.09Z"/>
            </g>
            <g>
              <path class="cls-5" d="M102.29,62.28c-.3,1.48-8.5,8.78-3.12,17.28,1.69,2.66,4.27,4,6.01,8.91.5,1.41,1.31,1.23,1.74.41.87-1.67.02-3.67-.08-5.55-.28-5.3,6.16-10.9,1.06-21.15,7.83,9.71,18.24,1.95,21.91,1.46,1.03-.14,2.29-.22,2.75-1.15,1.57-3.14-4.78-2.8-4.99-2.82-3.35-.43-9.01-6.27-18.26-2.22,11.36-11.83,2.11-14.85,3.6-22.06.57-2.76-1.14-3.47-2.37-.22-1.48,3.9-11.96,6.55-9.56,17.97-1.4-3.52-6.59-9.39-11.65-9.02-2.11.16-4.28,1.22-6.26.45-10.14-3.94,3.45,9.26,5.3,9.95,1.78.67,6.3.55,6.53,2.79.32,3.05-9.37.11-12.67,2.76-2.5,2.01-2.36,5.89-4.14,8.55-3.8,5.67,3.34,1.18,9.22.41,9.31-1.22,16.03-11.97,14.98-6.77Z"/>
              <path class="cls-5" d="M121.9-3.4c.92-1.2,11.49-4.15,10.39-14.16-.35-3.13-2.08-5.47-1.49-10.65.17-1.49-.64-1.68-1.38-1.13-1.51,1.12-1.63,3.29-2.36,5.02-2.07,4.89-10.32,7.09-10.24,18.53-2.77-12.16-15.53-9.76-19.04-10.93-.99-.33-2.15-.81-2.98-.18-2.79,2.13,3.07,4.61,3.24,4.73,2.82,1.86,5.35,9.59,15.44,10.01-15.4,5.65-8.41,12.41-12.92,18.24-1.73,2.23-.5,3.62,2.03,1.24,3.04-2.85,13.62-.63,16.48-11.95-.29,3.78,1.8,11.33,6.51,13.22,1.97.79,4.39.78,5.82,2.34,7.38,7.99.96-9.83-.39-11.27-1.31-1.39-5.41-3.26-4.64-5.38,1.06-2.88,8.47,4.02,12.6,3.08,3.13-.71,4.7-4.25,7.48-5.86,5.91-3.43-2.48-2.53-8.11-4.42-8.91-2.99-19.66,3.72-16.44-.49Z"/>
              <path class="cls-5" d="M39.05,45.33c-1.49-.25-9.03-8.23-17.37-2.59-2.61,1.77-3.87,4.39-8.72,6.29-1.4.55-1.19,1.35-.36,1.75,1.7.82,3.67-.09,5.54-.25,5.29-.45,11.09,5.82,21.17.41-9.46,8.12-1.39,18.29-.79,21.94.17,1.03.29,2.28,1.23,2.72,3.19,1.47,2.65-4.86,2.67-5.07.33-3.36,5.99-9.2,1.66-18.32,12.18,10.99,14.9,1.65,22.16,2.92,2.78.49,3.43-1.25.15-2.38-3.94-1.36-6.91-11.75-18.26-9,3.48-1.51,9.19-6.87,8.66-11.92-.22-2.11-1.35-4.24-.65-6.24,3.62-10.26-9.15,3.73-9.78,5.6-.62,1.8-.36,6.31-2.59,6.61-3.04.41-.4-9.36-3.15-12.58-2.09-2.43-5.96-2.18-8.67-3.88-5.79-3.63-1.08,3.37-.12,9.23,1.51,9.27,12.46,15.65,7.23,14.77Z"/>
            </g>
          </g>
        </g>
      </g>
    </g>
    <g id="TEXTS" class="cls-24">
      <text class="cls-18" transform="translate(512.51 215.76)"><tspan x="0" y="0">International</tspan></text>
      <text class="cls-17" transform="translate(478.84 256.71)"><tspan x="0" y="0">Coffee Day</tspan></text>
    </g>
  </g>
</svg>